<?xml version="1.0" standalone="no"?><!DOCTYPE svg PUBLIC "-//W3C//DTD SVG 1.1//EN"
    "http://www.w3.org/Graphics/SVG/1.1/DTD/svg11.dtd">
<svg t="1527041689122" class="icon" style="" viewBox="0 0 1024 1024" version="1.1" xmlns="http://www.w3.org/2000/svg"
     p-id="1952" xmlns:xlink="http://www.w3.org/1999/xlink" width="200" height="200">
    <defs>
        <style type="text/css"></style>
    </defs>
    <path
        d="M737.601154 495.284293c-51.53063 0.01228-109.973694-5.804193-175.756933-17.339924l-13.490246-2.372024-2.359744-13.490246c-33.582863-191.344956-18.614963-320.945663 45.738717-396.215974l20.426215-20.497846c72.838935-62.089104 151.516856-52.054563 194.300264-16.898879 6.507204 5.350868 12.322653 10.630105 17.542538 15.814174 37.920658 37.932937 44.404326 75.007321 43.23571 112.428605 37.611619-1.072425 74.506924 5.327332 112.38051 43.224454l0-0.01228c0 0.01228 0 0.01228 0 0.01228l0 0c5.219885 5.207605 10.486842 11.011798 15.84999 17.530258 35.155684 42.794665 45.190225 121.497145-15.826454 193.179744l-20.449751 20.533662C909.067364 474.095715 835.989999 495.284293 737.601154 495.284293zM582.15071 441.787892c169.488159 28.04166 287.278889 14.813381 350.560144-39.243793l18.257829-18.352997c45.405119-53.461609 39.494503-111.295805 14.32424-141.92336-4.504594-5.458315-8.91402-10.344602-13.276375-14.718213l0-0.01228c-31.176047-31.163767-57.227376-34.583656-103.990422-30.484292l-23.167652 2.026146 2.026146-23.178909c4.099365-46.728254 0.667196-72.826656-30.484292-103.979166-4.361331-4.361331-9.272177-8.783037-14.729469-13.287631-30.67565-25.157983-88.474031-31.080879-143.05616 15.408945l-18.23327 18.328437C567.277978 154.543795 554.12133 272.40718 582.15071 441.787892z"
        p-id="1953"></path>
    <path
        d="M315.226404 1023.592724 101.882412 1023.592724c-55.988152 0-101.535511-45.548382-101.535511-101.535511L0.346901 708.712197c0-55.987129 45.548382-101.535511 101.535511-101.535511l213.343993 0c55.988152 0 101.535511 45.548382 101.535511 101.535511l0 213.343993C416.761915 978.044342 371.214557 1023.592724 315.226404 1023.592724zM101.882412 646.217864c-34.464953 0-62.494333 28.04166-62.494333 62.494333l0 213.343993c0 34.452673 28.02938 62.494333 62.494333 62.494333l213.343993 0c34.464953 0 62.494333-28.04166 62.494333-62.494333L377.720737 708.712197c0-34.452673-28.02938-62.494333-62.494333-62.494333L101.882412 646.217864z"
        p-id="1954"></path>
    <path
        d="M315.226404 495.273037 101.882412 495.273037c-55.988152 0-101.535511-45.536103-101.535511-101.524255L0.346901 180.39251c0-55.988152 45.548382-101.524255 101.535511-101.524255l213.343993 0c55.988152 0 101.535511 45.536103 101.535511 101.524255l0 213.356272C416.761915 449.736934 371.214557 495.273037 315.226404 495.273037zM101.882412 117.910457c-34.464953 0-62.494333 28.02938-62.494333 62.483076l0 213.356272c0 34.452673 28.02938 62.483076 62.494333 62.483076l213.343993 0c34.464953 0 62.494333-28.02938 62.494333-62.483076L377.720737 180.39251c0-34.452673-28.02938-62.483076-62.494333-62.483076L101.882412 117.909433z"
        p-id="1955"></path>
    <path
        d="M843.546092 1023.592724 630.202099 1023.592724c-55.988152 0-101.535511-45.548382-101.535511-101.535511L528.666588 708.712197c0-55.987129 45.548382-101.535511 101.535511-101.535511L843.546092 607.176686c55.988152 0 101.535511 45.548382 101.535511 101.535511l0 213.343993C945.081603 978.044342 899.534244 1023.592724 843.546092 1023.592724zM630.202099 646.217864c-34.464953 0-62.494333 28.04166-62.494333 62.494333l0 213.343993c0 34.452673 28.02938 62.494333 62.494333 62.494333L843.546092 984.550523c34.464953 0 62.494333-28.04166 62.494333-62.494333L906.040425 708.712197c0-34.452673-28.02938-62.494333-62.494333-62.494333L630.202099 646.217864z"
        p-id="1956"></path>
</svg>
