<?xml version="1.0" standalone="no"?><!DOCTYPE svg PUBLIC "-//W3C//DTD SVG 1.1//EN"
    "http://www.w3.org/Graphics/SVG/1.1/DTD/svg11.dtd">
<svg t="1527129942524" class="icon" style="" viewBox="0 0 1024 1024" version="1.1" xmlns="http://www.w3.org/2000/svg"
     p-id="1502" xmlns:xlink="http://www.w3.org/1999/xlink" width="200" height="200">
    <defs>
        <style type="text/css"></style>
    </defs>
    <path
        d="M875.611391 452.594005c-2.503007-5.063319-6.351662-9.017374-10.899234-11.651364 17.869996-26.972305 26.715455-55.677067 26.715455-85.46551 0-32.912597-11.04659-64.50206-32.831756-93.89346-19.85521-26.787086-47.855938-50.602492-83.222423-70.783113-69.957305-39.919175-162.683173-63.438844-260.537851-63.438844-97.854679 0-190.886515 23.51967-260.84382 63.438844-35.367509 20.181645-63.367213 43.99705-83.222423 70.783113-21.786189 29.391401-32.831756 60.981886-32.831756 93.89346 0 28.92068 8.53335 56.821123 25.384134 83.105766-3.91517 2.602268-7.221472 6.232958-9.454326 10.750855-11.149944 22.564925-15.906272 41.430598-15.906272 63.082734 0 28.269857 8.255011 55.361889 24.073278 80.3367-3.351328 2.515287-6.182816 5.827729-8.165983 9.841136-10.55438 21.360494-15.906272 43.603077-15.906272 66.109674 0 32.917714 11.050684 64.48978 32.846082 93.839225 19.856233 26.738991 47.863101 50.500161 83.241866 70.622454 69.854974 39.730886 162.800853 63.157435 260.626879 63.184041 0.016373 0 0.029676 0 0.046049 0l0.137123 0c0.016373 0 0.030699 0 0.046049 0 97.827049-0.026606 190.669574-23.453155 260.525572-63.184041 35.378765-20.122293 63.385633-43.883463 83.241866-70.622454 21.795399-29.349445 32.847106-60.921511 32.847106-93.839225 0-22.352077-5.351891-44.515866-15.907295-65.87636-2.00261-4.053316-4.871961-7.391341-8.267291-9.915837 15.883759-25.018813 24.173562-52.166103 24.173562-80.496335C891.518686 486.863507 884.314611 470.206128 875.611391 452.594005zM193.21863 512.415462c0-10.800997 1.88186-19.811208 6.696516-31.054273 15.436574 14.071484 33.499975 27.051099 54.076616 38.792515 69.957305 39.919175 162.989141 63.950498 260.84382 63.950498 97.854679 0 190.784184-24.030299 260.742513-63.950498 20.10899-11.475356 37.82856-24.127514 53.03182-37.830607 5.677303 12.045337 7.650237 19.014052 7.650237 30.092365 0 42.157145-31.147394 82.343403-87.706551 113.155153-61.116963 33.293267-144.460136 51.632961-233.762021 51.642171-89.302909-0.00921-172.749436-18.348903-233.864352-51.642171C224.367047 594.758865 193.21863 554.573631 193.21863 512.415462zM281.378505 238.793618c61.748343-35.234479 145.053654-56.174394 233.457076-56.174394 88.404446 0 171.402765 20.939915 233.150084 56.174394 56.865125 32.44904 88.183412 73.887824 88.183412 116.682489s-31.112602 84.23345-87.97875 116.682489c-61.747319 35.234479-144.9503 55.662741-233.354745 55.662741-88.403422 0-171.708733-20.428262-233.457076-55.662741-56.865125-32.44904-88.182388-73.887824-88.182388-116.682489S224.51338 271.242657 281.378505 238.793618zM748.110509 785.131681c-61.690014 35.087123-144.876622 55.949266-233.319953 55.959499-88.443331-0.010233-171.73227-20.871353-233.422284-55.959499-56.843636-32.330336-88.149643-73.67907-88.149643-116.427686 0-11.08036 2.056845-21.840424 6.242168-32.655747 15.582907 13.81975 33.980929 26.580379 55.029314 38.046524 69.058842 37.621852 161.849178 58.350966 260.184811 58.376549 0.01535 0 0.030699 0 0.046049 0l0.137123 0c0.01535 0 0.030699 0 0.046049 0 98.336656-0.024559 191.024661-20.754696 260.083503-58.376549 21.018709-11.450796 39.394219-24.191982 54.963823-37.990243 4.229325 10.844999 6.307659 21.585621 6.307659 32.598442C836.260152 711.452611 804.954145 752.801345 748.110509 785.131681z"
        p-id="1503"></path>
</svg>
